<svg width="42" height="34" viewBox="0 0 42 34" fill="none" xmlns="http://www.w3.org/2000/svg">
<path d="M2.5 9.80048V10.3005H3H39H39.5V9.80048V7.55048C39.5 6.42331 39.0522 5.3423 38.2552 4.54527C37.4582 3.74824 36.3772 3.30048 35.25 3.30048H6.75C5.62283 3.30048 4.54183 3.74824 3.7448 4.54527C2.94777 5.3423 2.5 6.42331 2.5 7.55048V9.80048ZM39.5 12.8005V12.3005H39H3H2.5V12.8005V27.0505C2.5 28.1776 2.94777 29.2586 3.7448 30.0557C4.54183 30.8527 5.62283 31.3005 6.75 31.3005H35.25C36.3772 31.3005 37.4582 30.8527 38.2552 30.0557C39.0522 29.2586 39.5 28.1776 39.5 27.0505V12.8005ZM0.5 7.55048C0.5 5.89287 1.15848 4.30316 2.33058 3.13106C3.50268 1.95896 5.0924 1.30048 6.75 1.30048H35.25C36.9076 1.30048 38.4973 1.95896 39.6694 3.13106C40.8415 4.30316 41.5 5.89287 41.5 7.55048V27.0505C41.5 28.7081 40.8415 30.2978 39.6694 31.4699C38.4973 32.642 36.9076 33.3005 35.25 33.3005H6.75C5.0924 33.3005 3.50268 32.642 2.33058 31.4699C1.15848 30.2978 0.5 28.7081 0.5 27.0505V7.55048ZM28.5 22.3005H33C33.2652 22.3005 33.5196 22.4058 33.7071 22.5934C33.8946 22.7809 34 23.0353 34 23.3005C34 23.5657 33.8946 23.82 33.7071 24.0076C33.5196 24.1951 33.2652 24.3005 33 24.3005H28.5C28.2348 24.3005 27.9804 24.1951 27.7929 24.0076C27.6054 23.82 27.5 23.5657 27.5 23.3005C27.5 23.0353 27.6054 22.7809 27.7929 22.5934C27.9804 22.4058 28.2348 22.3005 28.5 22.3005Z" fill="#4CAF4F" stroke="#4CAF4F"/>
</svg>
